<svg version="1.1" id="polyLogo" xmlns="http://www.w3.org/2000/svg" xmlns:xlink="http://www.w3.org/1999/xlink" x="0px" y="0px"
	 viewBox="0 0 265 77" style="enable-background:new 0 0 265 77;" xml:space="preserve">
<style type="text/css">
	.st0{fill:#37B34A;}
	.st1{fill:#404041;}
</style>
<path id="polytechLogo" class="st0" d="M59.951,12.493c1.473,0.631,3.997,4.418,3.436,8.556c-2.875,2.314-6.312,3.927-9.608,4.418
	v26.368h9.818c0,4.067-0.631,7.293-1.332,8.486H44.313V25.887H31.83v20.548c0,10.379-5.821,15.428-13.254,15.428
	c-2.104,0-4.558-0.281-6.732-0.912c-0.982-1.332-1.473-5.33-1.613-10.309c4.909,2.384,11.641,3.506,12.202-4.208V27.22
	c-7.504,0.771-10.239,6.031-12.834,9.538c0.07-4.699,0.281-8.976,0.561-11.852c5.119-5.54,10.87-8.135,22.231-8.135h16.2
	C52.518,16.841,56.375,15.368,59.951,12.493 M36.879,4.989c-14.587,0-20.478,0.912-20.478,0.912
	C10.16,6.181,5.742,10.459,5.111,17.752c0,0-1.052,9.537-1.052,20.618s1.052,20.618,1.052,20.618
	c0.631,7.293,5.049,11.641,11.291,11.852c0,0,5.891,0.912,20.478,0.912s20.478-0.912,20.478-0.912
	c6.241-0.281,10.66-4.558,11.291-11.852c0,0,1.052-9.187,1.052-20.618c0-11.01-1.052-20.618-1.052-20.618
	c-0.631-7.293-5.049-11.641-11.291-11.852C57.357,5.83,51.466,4.989,36.879,4.989"/>
<path id="polytechName" class="st1" d="M106.096,15.859c0-6.241,2.595-11.641,10.169-11.641c7.574,0,10.169,5.33,10.169,11.641
	S123.838,27.5,116.265,27.5C108.621,27.57,106.096,22.17,106.096,15.859z M110.795,15.859c0,3.647,0.771,7.153,5.4,7.153
	c4.699,0,5.4-3.506,5.4-7.153s-0.771-7.153-5.4-7.153S110.795,12.212,110.795,15.859z M225.385,4.779l4.138,6.873l4.138-6.873h5.61
	l-6.732,10.66l7.293,11.571h-5.61l-4.699-7.784l-4.699,7.784h-5.61l7.293-11.571l-6.732-10.66H225.385z M204.907,13.615h8.766v4.278
	h-8.766v4.699h10.309v4.488h-15.078V4.779h15.078v4.488h-10.309V13.615z M184.78,27.009V9.267h-6.101V4.779h16.971v4.488h-6.101
	v17.743H184.78z M160.235,27.009h-4.488V4.779h4.769v13.675l8.766-13.675h4.488v22.231h-4.769V13.334L160.235,27.009z
	 M129.028,22.591c1.964,0.07,3.296-0.771,3.787-2.595c1.262-4.769,1.473-10.239,2.104-15.288h14.306v22.231h-4.769V9.267h-5.4
	c-0.281,3.086-0.842,8.486-1.753,11.852c-1.052,3.857-4.138,6.171-8.345,6.031v-4.558H129.028z M83.374,27.009V4.779h17.322v22.231
	h-4.769V9.267h-7.854v17.743H83.374z"/>
<path id="polytechDesc" class="st1" d="M129.309,55.271h-1.192l-1.613-2.455l-1.613,2.455h-1.192l2.244-3.296l-2.244-3.156h1.192
	l1.543,2.384l1.543-2.384h1.192l-2.244,3.156L129.309,55.271z M169.071,34.583l-2.805,7.784c-0.351,1.052-0.982,1.613-2.034,1.683
	c-0.281,0-0.561,0-0.912-0.14v-0.982c0.281,0.14,0.701,0.14,0.912,0.14c0.491-0.07,0.842-0.491,1.052-1.052l0.351-0.982
	l-2.595-6.452h1.122l1.964,5.119l1.823-5.119L169.071,34.583L169.071,34.583z M155.396,69.437h-1.332l-2.244-2.875h-0.561v2.875
	h-1.052v-6.382h1.052v2.665h0.631l2.104-2.665h1.262l-2.525,3.086L155.396,69.437L155.396,69.437z M170.193,55.271h-1.332
	l-2.244-2.875h-0.561v2.875h-1.052v-6.382h1.052v2.665h0.631l2.104-2.665h1.262l-2.525,3.086L170.193,55.271L170.193,55.271z
	 M110.514,41.035h-1.332l-2.244-2.875h-0.631v2.875h-1.052v-6.382h1.052v2.665h0.631l2.104-2.665h1.262l-2.525,3.086L110.514,41.035
	L110.514,41.035z M157.36,37.809c0-0.912,0.631-2.104,2.104-2.104s1.893,0.912,1.893,2.244c0,1.403-0.631,2.314-2.034,2.314
	C157.851,40.264,157.36,39.142,157.36,37.809L157.36,37.809z M157.29,35.775c0.14-1.052,0.561-1.823,1.262-2.314
	c0.561-0.421,1.403-0.491,2.174-0.771c0.771-0.21,1.122-0.701,1.122-1.403h-0.982c0,0.14-0.07,0.491-0.561,0.631
	c-0.771,0.21-1.543,0.351-2.174,0.771c-1.613,0.982-1.823,2.945-1.753,4.699c0.07,1.893,0.912,3.717,3.016,3.717
	c1.893,0,3.086-1.192,3.086-3.226s-0.912-3.226-2.805-3.156C158.763,34.794,157.781,35.214,157.29,35.775z M84.216,36.547
	c0-2.174,0.912-3.577,3.156-3.577c0.771,0,1.613,0.14,2.244,0.351l0.07-1.122c-0.701-0.21-1.473-0.281-2.314-0.281
	c-2.875,0-4.418,1.753-4.418,4.628s1.543,4.628,4.418,4.628c0.771,0,1.613-0.07,2.314-0.281l-0.07-1.122
	c-0.631,0.21-1.473,0.351-2.244,0.351C85.127,40.123,84.216,38.721,84.216,36.547L84.216,36.547z M180.222,46.786
	c0.281,0.421,0.771,0.631,1.262,0.631c0.491,0,0.982-0.21,1.262-0.631l0.561,0.491c-0.421,0.631-1.122,0.912-1.823,0.912
	c-0.701,0-1.403-0.281-1.823-0.912L180.222,46.786L180.222,46.786z M179.871,55.271h-1.052v-6.382h0.912v5.119
	c0.21-0.351,0.421-0.771,0.701-1.122l2.735-3.927h1.052v6.382h-0.912v-5.119c-0.21,0.351-0.421,0.771-0.701,1.122L179.871,55.271z
	 M172.438,55.271h-1.052v-6.382h0.912v5.119c0.21-0.351,0.421-0.771,0.701-1.122l2.735-3.927h1.052v6.382h-0.912v-5.119
	c-0.21,0.351-0.421,0.771-0.701,1.122L172.438,55.271z M138.916,55.271h-1.052v-6.382h0.912v5.119
	c0.21-0.351,0.421-0.771,0.701-1.122l2.735-3.927h1.052v6.382h-0.912v-5.119c-0.21,0.351-0.421,0.771-0.701,1.122L138.916,55.271z
	 M239.481,55.271h-1.052v-6.382h0.912v5.119c0.21-0.351,0.421-0.771,0.701-1.122l2.735-3.927h1.052v6.382h-0.912v-5.119
	c-0.21,0.351-0.421,0.771-0.701,1.122L239.481,55.271z M232.257,52.045c0-2.314,1.403-3.366,3.226-3.366
	c0.421,0,1.052,0.07,1.543,0.21l-0.07,0.912c-0.491-0.14-1.122-0.21-1.613-0.21c-1.192,0.07-2.034,0.771-2.034,2.455
	c0,1.753,0.912,2.455,2.034,2.455c0.491,0,1.122,0,1.613-0.21l0.07,0.912c-0.491,0.14-1.122,0.14-1.543,0.14
	C233.59,55.411,232.257,54.359,232.257,52.045L232.257,52.045z M158.833,52.045c0-2.314,1.403-3.366,3.226-3.366
	c0.421,0,1.052,0.07,1.543,0.21l-0.07,0.912c-0.491-0.14-1.122-0.21-1.613-0.21c-1.192,0.07-2.034,0.771-2.034,2.455
	c0,1.753,0.912,2.455,2.034,2.455c0.491,0,1.122,0,1.613-0.21l0.07,0.912c-0.491,0.14-1.122,0.14-1.543,0.14
	C160.165,55.411,158.833,54.359,158.833,52.045L158.833,52.045z M182.045,37.809c0-2.314,1.403-3.366,3.226-3.366
	c0.421,0,1.052,0.07,1.543,0.21l-0.07,0.912c-0.491-0.14-1.122-0.21-1.613-0.21c-1.192,0.07-2.034,0.771-2.034,2.455
	c0,1.753,0.912,2.455,2.034,2.455c0.491,0,1.122,0,1.613-0.21l0.07,0.912c-0.491,0.14-1.122,0.14-1.543,0.14
	C183.378,41.175,182.045,40.193,182.045,37.809L182.045,37.809z M140.81,69.437h-1.052v-5.54h-1.823
	c-0.14,2.104-0.351,3.577-0.771,4.418c-0.421,0.842-0.912,1.262-2.034,1.122v-0.982c0.491,0.07,0.982-0.14,1.192-0.701
	c0.421-0.842,0.561-2.455,0.701-4.769h3.787L140.81,69.437L140.81,69.437z M91.79,52.045c0-1.403,0.491-2.455,1.964-2.455
	c1.473,0,1.964,1.052,1.964,2.455S95.226,54.5,93.753,54.5C92.281,54.5,91.79,53.448,91.79,52.045z M96.839,52.045
	c0-2.034-0.982-3.366-3.016-3.366s-3.016,1.332-3.016,3.366s0.982,3.366,3.016,3.366C95.787,55.411,96.839,54.079,96.839,52.045z
	 M168.861,66.281c0-1.403,0.491-2.454,1.964-2.454c1.473,0,1.964,1.052,1.964,2.454s-0.491,2.455-1.964,2.455
	C169.352,68.736,168.861,67.684,168.861,66.281z M173.91,66.281c0-2.034-0.982-3.366-3.016-3.366s-3.016,1.332-3.016,3.366
	c0,2.034,0.982,3.366,3.016,3.366C172.858,69.577,173.91,68.245,173.91,66.281z M156.939,66.281c0-1.403,0.491-2.454,1.964-2.454
	s1.964,1.052,1.964,2.454s-0.491,2.455-1.964,2.455S156.939,67.684,156.939,66.281z M161.918,66.281
	c0-2.034-0.982-3.366-3.016-3.366c-2.034,0-3.016,1.332-3.016,3.366c0,2.034,0.982,3.366,3.016,3.366
	C160.937,69.577,161.918,68.245,161.918,66.281z M103.221,41.035h-1.052V38.09h-3.296v2.945h-0.982v-6.382h1.052v2.595h3.296v-2.595
	h1.052L103.221,41.035L103.221,41.035z M115.704,35.495h-1.893v5.54h-1.052v-5.54h-1.893v-0.912h4.909v0.912H115.704z M119.49,38.3
	h-3.366v-0.982h3.436L119.49,38.3L119.49,38.3z M128.467,41.035h-1.052V33.04h-4.699v7.995h-1.052v-8.976h6.802V41.035
	L128.467,41.035z M141.371,35.495h-1.893v5.54h-1.052v-5.54h-1.964v-0.912h4.909V35.495L141.371,35.495z M181.624,35.495h-2.805
	v5.54h-0.982v-6.382h3.857v0.842H181.624z M193.476,41.035h-1.332L189.9,38.16h-0.561v2.875h-1.052v-6.382h1.052v2.665h0.631
	l2.104-2.665h1.262l-2.525,3.086L193.476,41.035z M103.221,55.271h-1.052v-5.54h-1.823c-0.14,2.104-0.351,3.577-0.771,4.418
	c-0.421,0.842-0.912,1.262-2.034,1.122v-0.982c0.491,0.07,0.982-0.14,1.192-0.701c0.421-0.842,0.561-2.455,0.701-4.769h3.787V55.271
	L103.221,55.271z M116.826,49.731h-1.893v5.54h-1.052v-5.54h-1.964v-0.842h4.909V49.731z M135.76,55.271h-1.052v-2.945h-3.296v2.945
	h-1.052v-6.382h1.052v2.595h3.296v-2.595h1.052V55.271z M150.207,55.271h-1.052v-2.525c-0.491,0.21-1.192,0.281-1.823,0.281
	c-1.122-0.07-2.174-0.561-2.174-2.244v-1.964h1.052v1.893c0,1.122,0.631,1.403,1.473,1.403c0.561,0,1.192-0.14,1.543-0.281v-3.016
	h1.052L150.207,55.271L150.207,55.271z M202.102,55.271h-1.052v-2.945h-3.296v2.945h-0.982v-6.382h1.052v2.595h3.296v-2.595h1.052
	v6.382H202.102z M211.64,55.271v-6.382h2.805c0.982,0,1.964,0.491,1.964,1.543c0,0.842-0.421,1.332-1.052,1.543
	c0.912,0.14,1.332,0.631,1.332,1.473c0,1.122-0.982,1.823-2.034,1.823L211.64,55.271L211.64,55.271z M212.621,49.731v1.823h1.543
	c0.842,0,1.192-0.351,1.192-0.982c0-0.561-0.281-0.842-1.052-0.842H212.621L212.621,49.731z M212.621,52.396v1.964h1.753
	c0.842,0,1.192-0.351,1.192-0.982s-0.421-0.982-1.332-0.982H212.621z M249.93,49.731h-1.893v5.54h-1.052v-5.54h-1.893v-0.842H250
	L249.93,49.731L249.93,49.731z M261.641,49.731h-1.893v5.54h-1.052v-5.54h-1.964v-0.842h4.909V49.731z M90.317,69.507h-1.052v-7.995
	h-4.699v7.995h-1.052v-8.976h6.802V69.507L90.317,69.507z M103.291,63.967h-1.893v5.54h-1.052v-5.54h-1.964v-0.912h4.909V63.967
	L103.291,63.967z M121.805,69.507v-8.976h3.156c1.473,0,2.525,0.842,2.454,2.384c0,0.912-0.491,1.543-1.192,1.823l0,0
	c1.052,0.281,1.683,1.192,1.683,2.174c0,1.683-1.262,2.595-2.805,2.595L121.805,69.507L121.805,69.507z M122.857,61.442v2.875h1.683
	c1.052,0,1.753-0.491,1.753-1.613c0-0.842-0.491-1.332-1.613-1.332L122.857,61.442L122.857,61.442z M122.857,65.3v3.226h2.034
	c1.052,0,1.893-0.491,1.893-1.613c0-1.052-0.631-1.613-2.104-1.613C124.68,65.3,122.857,65.3,122.857,65.3z M167.388,63.967h-2.525
	v5.54h-1.052v-6.452h3.577V63.967z M135.901,38.16h-4.699c0.07,1.613,0.982,2.174,2.174,2.104c0.701,0,1.473-0.21,2.034-0.491v0.982
	c-0.631,0.281-1.543,0.421-2.174,0.351c-1.683,0-3.156-1.122-3.156-3.366c0-1.823,0.982-3.366,2.945-3.366
	C135.199,34.443,135.971,35.846,135.901,38.16L135.901,38.16z M134.849,37.248c0-1.262-0.701-1.893-1.683-1.893
	c-1.262,0-1.893,0.771-1.964,1.893H134.849z M147.612,38.16h-4.699c0.07,1.613,0.982,2.174,2.174,2.104
	c0.701,0,1.473-0.21,2.034-0.491v0.982c-0.631,0.281-1.543,0.421-2.174,0.351c-1.683,0-3.156-1.122-3.156-3.366
	c0-1.823,0.982-3.366,2.945-3.366C146.911,34.443,147.682,35.846,147.612,38.16L147.612,38.16z M146.56,37.248
	c0-1.262-0.701-1.893-1.683-1.893c-1.262,0-1.893,0.771-1.964,1.893H146.56z M256.171,52.326h-4.699
	c0.07,1.613,0.982,2.174,2.174,2.104c0.701,0,1.473-0.21,2.034-0.491v0.982c-0.631,0.281-1.543,0.421-2.174,0.351
	c-1.683,0-3.156-1.122-3.156-3.366c0-1.823,0.982-3.366,2.945-3.366C255.47,48.679,256.241,50.082,256.171,52.326L256.171,52.326z
	 M255.119,51.484c0-1.262-0.701-1.893-1.683-1.893c-1.262,0-1.893,0.771-1.964,1.893H255.119z M223.632,52.326h-4.699
	c0.07,1.613,0.982,2.174,2.174,2.104c0.701,0,1.473-0.21,2.034-0.491v0.982c-0.631,0.281-1.543,0.421-2.174,0.351
	c-1.683,0-3.156-1.122-3.156-3.366c0-1.823,0.982-3.366,2.945-3.366C222.93,48.679,223.702,50.082,223.632,52.326L223.632,52.326z
	 M222.58,51.484c0-1.262-0.701-1.893-1.683-1.893c-1.262,0-1.893,0.771-1.964,1.893H222.58z M157.781,52.326h-4.699
	c0.07,1.613,0.982,2.174,2.174,2.104c0.701,0,1.473-0.21,2.034-0.491v0.982c-0.631,0.281-1.543,0.421-2.174,0.351
	c-1.683,0-3.156-1.122-3.156-3.366c0-1.823,0.982-3.366,2.945-3.366C157.079,48.679,157.851,50.082,157.781,52.326L157.781,52.326z
	 M156.729,51.484c0-1.262-0.701-1.893-1.683-1.893c-1.262,0-1.893,0.771-1.964,1.893H156.729z M123.067,52.326h-4.699
	c0.07,1.613,0.982,2.174,2.174,2.104c0.701,0,1.473-0.21,2.034-0.491v0.982c-0.631,0.281-1.543,0.421-2.174,0.351
	c-1.683,0-3.156-1.122-3.156-3.366c0-1.823,0.982-3.366,2.945-3.366C122.366,48.679,123.137,50.082,123.067,52.326L123.067,52.326z
	 M122.015,51.484c0-1.262-0.701-1.893-1.683-1.893c-1.262,0-1.893,0.771-1.964,1.893H122.015z M97.751,66.562h-4.699
	c0.07,1.613,0.982,2.174,2.174,2.104c0.701,0,1.473-0.21,2.034-0.491v0.982c-0.631,0.281-1.543,0.421-2.174,0.351
	c-1.683,0-3.156-1.122-3.156-3.366c0-1.823,0.982-3.366,2.945-3.366C97.049,62.915,97.821,64.318,97.751,66.562L97.751,66.562z
	 M96.699,65.72c0-1.262-0.701-1.893-1.683-1.893c-1.262,0-1.893,0.771-1.964,1.893H96.699L96.699,65.72z M134.568,66.562h-4.699
	c0.07,1.613,0.982,2.174,2.174,2.104c0.701,0,1.403-0.14,1.964-0.491v0.982c-0.631,0.281-1.403,0.421-2.034,0.351
	c-1.683,0-3.156-1.122-3.156-3.366c0-1.823,0.982-3.366,2.945-3.366C133.867,62.915,134.638,64.318,134.568,66.562L134.568,66.562z
	 M133.516,65.72c0-1.262-0.701-1.893-1.683-1.893c-1.262,0-1.893,0.771-1.964,1.893H133.516L133.516,65.72z M205.258,55.271h-1.052
	v-6.382h0.912v5.049c0.21-0.351,0.351-0.701,0.631-1.052l2.735-3.997h1.052v6.382h-0.912v-5.049
	c-0.21,0.351-0.351,0.701-0.631,1.052L205.258,55.271z M203.505,32.549c0.281,0.421,0.771,0.631,1.262,0.631
	c0.491,0,0.982-0.21,1.262-0.631l0.561,0.491c-0.421,0.631-1.122,0.912-1.823,0.912c-0.701,0-1.403-0.281-1.823-0.912
	L203.505,32.549z M203.154,41.035h-1.052v-6.382h0.912v5.119c0.21-0.351,0.421-0.771,0.701-1.122l2.735-3.927h1.052v6.382h-0.912
	v-5.119c-0.21,0.351-0.421,0.771-0.701,1.122L203.154,41.035z M195.72,41.035h-1.052v-6.382h0.912v5.119
	c0.21-0.351,0.421-0.771,0.701-1.122l2.735-3.927h1.052v6.382h-0.912v-5.119c-0.21,0.351-0.421,0.771-0.701,1.122L195.72,41.035
	L195.72,41.035z M106.376,55.271h-1.052v-6.382h0.912v5.119c0.21-0.351,0.421-0.771,0.701-1.122l2.735-3.927h1.052v6.382h-0.912
	v-5.119c-0.21,0.351-0.421,0.771-0.701,1.122L106.376,55.271L106.376,55.271z M143.825,69.437h-1.052v-6.382h0.912v5.119
	c0.21-0.351,0.421-0.771,0.701-1.122l2.735-3.927h1.052v6.382h-0.912v-5.119c-0.21,0.351-0.421,0.771-0.701,1.122L143.825,69.437z
	 M105.325,68.736v3.647h-1.052v-9.327h0.912l0.07,0.842c0.631-0.771,1.473-0.982,2.314-0.912c1.893,0.07,2.595,1.613,2.595,3.366
	c-0.07,1.753-0.912,3.296-2.945,3.296C106.096,69.648,105.535,69.086,105.325,68.736L105.325,68.736z M105.254,66.351
	c0,1.192,0.351,2.384,1.893,2.384c1.403,0,1.964-1.262,1.964-2.454c0.07-1.192-0.351-2.525-1.823-2.525
	C105.675,63.757,105.254,65.019,105.254,66.351L105.254,66.351z M226.156,54.5v3.647h-1.052v-9.327h0.912l0.07,0.842
	c0.631-0.771,1.473-0.982,2.314-0.912c1.893,0.07,2.595,1.613,2.595,3.366c-0.07,1.753-0.982,3.296-2.945,3.296
	C226.998,55.411,226.437,54.85,226.156,54.5z M226.156,52.115c0,1.192,0.351,2.384,1.893,2.384c1.403,0,1.964-1.262,1.964-2.455
	c0.07-1.192-0.351-2.525-1.823-2.525C226.577,49.521,226.156,50.853,226.156,52.115z M171.316,40.334v3.647h-1.052v-9.397h0.912
	l0.07,0.842c0.631-0.771,1.473-0.982,2.314-0.912c1.893,0.07,2.595,1.613,2.595,3.366c-0.07,1.753-0.982,3.296-2.945,3.296
	C172.087,41.175,171.526,40.614,171.316,40.334z M171.245,37.879c0,1.192,0.351,2.384,1.893,2.384c1.403,0,1.964-1.262,1.964-2.455
	c0.07-1.192-0.351-2.525-1.823-2.525C171.736,35.355,171.245,36.617,171.245,37.879L171.245,37.879z M150.137,40.334v3.647h-1.052
	v-9.397h0.912l0.07,0.842c0.631-0.771,1.473-0.982,2.314-0.912c1.893,0.07,2.595,1.613,2.595,3.366
	c-0.07,1.753-0.982,3.296-2.945,3.296C150.908,41.175,150.347,40.614,150.137,40.334L150.137,40.334z M150.067,37.879
	c0,1.192,0.351,2.384,1.893,2.384c1.403,0,1.964-1.262,1.964-2.455c0.07-1.192-0.351-2.525-1.823-2.525
	C150.557,35.355,150.067,36.617,150.067,37.879z M115.002,66.351v0.491c0,1.052-0.701,1.823-1.753,1.893
	c-0.631,0-1.192-0.351-1.192-1.052C111.987,66.141,113.389,66.281,115.002,66.351L115.002,66.351z M111.426,63.266l0.07,0.982
	c0.561-0.21,1.332-0.421,2.034-0.351c0.771,0.07,1.473,0.351,1.473,1.403v0.281c-2.384-0.14-4.067,0.07-4.067,2.104
	c0,1.262,0.912,1.964,2.034,1.964c0.842,0,1.543-0.351,2.034-0.912l0.14,0.771h0.842V65.3c0-1.753-1.052-2.244-2.384-2.314
	C112.969,62.915,111.987,63.055,111.426,63.266L111.426,63.266z M94.945,37.879v0.491c0,1.052-0.701,1.823-1.753,1.893
	c-0.631,0-1.192-0.351-1.192-1.052C91.93,37.739,93.403,37.879,94.945,37.879L94.945,37.879z M91.369,34.794l0.07,0.982
	c0.561-0.21,1.332-0.421,2.034-0.351c0.771,0.07,1.473,0.351,1.473,1.403v0.281c-2.384-0.14-4.067,0.07-4.067,2.104
	c0,1.262,0.912,1.964,2.034,1.964c0.842,0,1.543-0.351,2.034-0.912l0.14,0.771h0.842v-4.208c0-1.753-1.052-2.244-2.384-2.314
	C92.912,34.443,91.93,34.583,91.369,34.794 M88.914,48.819h-5.33v6.382h1.052v-5.4h3.296v5.4h1.052L88.914,48.819L88.914,48.819z
	 M195.58,48.819h-1.052l-1.823,5.119l-1.964-5.119h-1.122l2.595,6.452l-0.351,0.982c-0.21,0.561-0.491,0.982-1.052,1.052
	c-0.281,0-0.631,0-0.912-0.14v0.982c0.351,0.14,0.631,0.14,0.912,0.14c0.982-0.07,1.613-0.701,2.034-1.683L195.58,48.819
	L195.58,48.819z"/>
</svg>
